<svg width="175" height="42" viewBox="0 0 175 42" fill="none" xmlns="http://www.w3.org/2000/svg">
<path fill-rule="evenodd" clip-rule="evenodd" d="M68.3234 30.0979L65.9577 40.9436H60.5166L69.5062 1.63743H75.9517L84.409 40.9436H78.9088L76.6023 30.0979H68.3234ZM75.9517 25.7239L74.1183 16.3333C73.586 13.6505 73.0537 10.1532 72.6407 7.35285H72.4032C71.9902 10.2106 71.3968 13.8255 70.8665 16.3333L68.9739 25.7239H75.9517ZM105.178 0.588623V33.6545C105.178 35.8134 105.296 38.9627 105.413 40.9446H100.624L100.269 37.5047H100.092C99.1453 39.4866 96.957 41.4121 94.06 41.4121C88.7373 41.4121 85.4844 35.6957 85.4844 26.8913C85.4844 16.8601 89.8008 12.1361 94.3558 12.1361C96.6613 12.1361 98.4947 13.1869 99.5001 15.3438H99.6184V0.588623H105.178V0.588623ZM99.6174 23.391C99.6174 22.8671 99.6174 22.2256 99.5583 21.6405C99.2626 19.0753 97.784 16.8591 95.7742 16.8591C92.2838 16.8591 91.102 21.6405 91.102 26.8903C91.102 32.7224 92.6396 36.8038 95.5968 36.8038C96.8387 36.8038 98.4937 36.1623 99.44 32.7807C99.5583 32.3141 99.6174 31.6133 99.6174 30.9737V23.391V23.391ZM118.42 41.4112C112.684 41.4112 108.543 36.5706 108.543 26.8329C108.543 16.5092 113.451 12.1352 118.714 12.1352C124.392 12.1352 128.472 17.1507 128.472 26.7153C128.472 37.9712 122.853 41.4112 118.478 41.4112H118.42ZM118.596 37.0964C122.025 37.0964 122.795 31.0894 122.795 26.7746C122.795 22.5162 122.026 16.4519 118.479 16.4519C114.811 16.4519 114.102 22.5162 114.102 26.7746C114.102 31.4976 114.93 37.0964 118.538 37.0964H118.596ZM131.823 0.588623H137.382V15.8094H137.5C138.978 13.2442 140.989 12.1352 143.532 12.1352C148.44 12.1352 151.517 17.6173 151.517 26.3071C151.517 36.4539 147.318 41.4112 142.586 41.4112C139.747 41.4112 138.151 39.8939 136.908 37.3861H136.673L136.376 40.9436H131.587C131.705 39.02 131.823 35.8124 131.823 33.6536V0.588623V0.588623ZM137.382 30.9125C137.382 31.5559 137.441 32.1975 137.618 32.6631C138.504 36.105 140.22 36.8038 141.343 36.8038C144.655 36.8038 145.897 32.4891 145.897 26.657C145.897 21.2332 144.597 16.8591 141.284 16.8591C139.451 16.8591 137.972 19.017 137.558 21.0582C137.44 21.6414 137.381 22.4006 137.381 22.9828V30.9125H137.382V30.9125ZM159.72 27.8808C159.779 35.1709 162.971 36.9778 166.343 36.9778C168.353 36.9778 170.069 36.5122 171.311 35.9281L172.139 39.8939C170.423 40.7687 167.821 41.2362 165.278 41.2362C158.064 41.2362 154.279 35.8707 154.279 27.1226C154.279 17.8496 158.595 12.1342 164.568 12.1342C170.542 12.1342 173.321 17.7913 173.321 24.9074C173.321 26.3061 173.261 27.1819 173.203 27.9391L159.72 27.8808V27.8808ZM168.058 23.9743C168.117 18.9587 166.343 16.2769 164.155 16.2769C161.256 16.2769 159.955 20.4177 159.779 23.9743H168.058Z" fill="black"/>
<path fill-rule="evenodd" clip-rule="evenodd" d="M29.1869 1.74243H45.793V40.9437L29.1869 1.74243ZM17.4886 1.74243H0.870605V40.9437L17.4886 1.74243ZM23.3387 16.1894L33.9192 40.9437H26.9858L23.8217 33.0597H16.077L23.3387 16.1894Z" fill="#FF0000"/>
<path fill-rule="evenodd" clip-rule="evenodd" d="M172.849 12.0623C173.016 12.063 173.181 12.0963 173.334 12.1602C173.488 12.2241 173.627 12.3174 173.744 12.4346C173.86 12.5518 173.952 12.6906 174.014 12.8431C174.077 12.9956 174.107 13.1587 174.105 13.323C174.105 14.0345 173.548 14.5895 172.843 14.5895C172.145 14.5895 171.576 14.0355 171.576 13.323C171.575 13.1581 171.607 12.9946 171.67 12.8419C171.733 12.6893 171.827 12.5504 171.944 12.4333C172.062 12.3162 172.202 12.2232 172.356 12.1595C172.511 12.0958 172.676 12.0628 172.843 12.0623H172.849ZM172.843 12.2577C172.282 12.2577 171.82 12.7349 171.82 13.323C171.82 13.9227 172.282 14.3932 172.849 14.3932C173.417 14.399 173.871 13.9227 173.871 13.3288C173.871 12.7349 173.417 12.2577 172.849 12.2577H172.843ZM172.605 14.0578H172.378V12.6503C172.497 12.6338 172.612 12.6163 172.782 12.6163C172.998 12.6163 173.139 12.662 173.225 12.7232C173.311 12.7845 173.356 12.8797 173.356 13.0149C173.356 13.1995 173.231 13.3123 173.077 13.357V13.3677C173.202 13.39 173.288 13.5028 173.316 13.7098C173.35 13.9285 173.384 14.0121 173.407 14.0578H173.169C173.134 14.0121 173.101 13.8838 173.072 13.6991C173.038 13.5193 172.947 13.4523 172.765 13.4523H172.606V14.0578H172.605V14.0578ZM172.605 13.2783H172.769C172.957 13.2783 173.117 13.2112 173.117 13.0372C173.117 12.9138 173.026 12.7903 172.769 12.7903C172.697 12.7903 172.644 12.7961 172.605 12.802V13.2783V13.2783ZM47.9825 1.74243C48.1491 1.74319 48.314 1.77647 48.4674 1.84037C48.6209 1.90427 48.7601 1.99752 48.8768 2.11473C48.9936 2.23194 49.0856 2.3708 49.1477 2.52328C49.2097 2.67576 49.2405 2.83885 49.2383 3.00313C49.2383 3.71464 48.6814 4.26966 47.9766 4.26966C47.2778 4.26966 46.709 3.71561 46.709 3.00313C46.7081 2.83822 46.7402 2.67475 46.8034 2.52209C46.8667 2.36943 46.9598 2.23057 47.0776 2.11346C47.1953 1.99636 47.3354 1.90331 47.4896 1.83964C47.6439 1.77597 47.8094 1.74294 47.9766 1.74243H47.9825ZM47.9766 1.9378C47.4138 1.9378 46.9535 2.41506 46.9535 3.00313C46.9535 3.60286 47.4138 4.07331 47.9825 4.07331C48.5503 4.07914 49.0057 3.60286 49.0057 3.00896C49.0057 2.41507 48.5503 1.9378 47.9825 1.9378H47.9766ZM47.7381 3.73797H47.5104V2.33049C47.644 2.30864 47.7791 2.29759 47.9145 2.29745C48.1304 2.29745 48.2723 2.34119 48.3571 2.4034C48.4429 2.46464 48.4882 2.56086 48.4882 2.695C48.4882 2.87968 48.363 2.99244 48.2092 3.03715V3.04784C48.3344 3.07019 48.4202 3.18295 48.4488 3.39096C48.4823 3.60967 48.5168 3.69326 48.5395 3.73894H48.3009C48.2664 3.69326 48.2319 3.56495 48.2043 3.38027C48.1698 3.20045 48.0791 3.13338 47.8968 3.13338H47.7381V3.73797V3.73797ZM47.7381 2.95842H47.9027C48.09 2.95842 48.2497 2.89135 48.2497 2.71736C48.2497 2.59391 48.159 2.47047 47.9027 2.47047C47.8288 2.47047 47.7775 2.4763 47.7381 2.48213V2.95842V2.95842Z" fill="black"/>
</svg>
