<svg width="22" height="18" viewBox="0 0 22 18" fill="none" xmlns="http://www.w3.org/2000/svg">
<path d="M12.5714 14.25H11V12.75C10.9994 12.1534 10.7508 11.5815 10.3089 11.1597C9.867 10.7378 9.26782 10.5006 8.64286 10.5H5.5C4.87504 10.5006 4.27585 10.7378 3.83394 11.1597C3.39202 11.5815 3.14348 12.1534 3.14286 12.75V14.25H1.57143V12.75C1.57268 11.7558 1.98698 10.8027 2.72346 10.0997C3.45994 9.39666 4.45846 9.00119 5.5 9H8.64286C9.6844 9.00119 10.6829 9.39666 11.4194 10.0997C12.1559 10.8027 12.5702 11.7558 12.5714 12.75V14.25ZM7.07143 1.5C7.53763 1.5 7.99336 1.63196 8.38099 1.87919C8.76862 2.12643 9.07074 2.47783 9.24914 2.88896C9.42755 3.3001 9.47423 3.7525 9.38328 4.18895C9.29233 4.62541 9.06783 5.02632 8.73818 5.34099C8.40853 5.65566 7.98853 5.86995 7.53128 5.95677C7.07404 6.04358 6.6001 5.99903 6.16939 5.82873C5.73868 5.65843 5.37054 5.37004 5.11154 5.00003C4.85253 4.63002 4.71429 4.19501 4.71429 3.75C4.71429 3.15326 4.96263 2.58097 5.40468 2.15901C5.84673 1.73705 6.44628 1.5 7.07143 1.5V1.5ZM7.07143 0C6.29443 0 5.53488 0.219934 4.88883 0.631989C4.24278 1.04404 3.73925 1.62971 3.4419 2.31494C3.14456 3.00016 3.06676 3.75416 3.21834 4.48159C3.36993 5.20902 3.74409 5.8772 4.29351 6.40165C4.84293 6.9261 5.54293 7.28325 6.305 7.42795C7.06707 7.57264 7.85697 7.49838 8.57483 7.21455C9.29268 6.93072 9.90624 6.45007 10.3379 5.83339C10.7696 5.2167 11 4.49168 11 3.75C11 2.75544 10.5861 1.80161 9.84935 1.09835C9.1126 0.395088 8.11335 0 7.07143 0V0ZM0 16.5H22V18H0V16.5ZM22 3H20.4286V1.5H18.8571V0H22V3ZM13.3571 0H16.5V1.5H14.9286V3H13.3571V0ZM20.4286 6.75H22V8.25H20.4286V6.75ZM18.8571 5.25H20.4286V6.75H18.8571V5.25ZM13.3571 5.25H14.9286V6.75H16.5V8.25H13.3571V5.25Z" fill="black"/>
</svg>
