<svg width="80" height="80" viewBox="0 0 80 80" fill="none" xmlns="http://www.w3.org/2000/svg">
<path d="M39.9935 0.020833C39.3896 0.020833 38.7856 0.0208324 38.2025 0.062499L30.018 22.5625H37.1404C41.3681 22.5625 43.6589 25.8125 42.2011 29.8125L32.1214 57.5208H23.6453L34.4747 27.8125H28.1228L17.2934 57.5208H8.83809L21.5418 22.5208L29.2266 1.47917C20.6914 3.86455 13.1902 9.01881 7.90137 16.1322C2.61257 23.2456 -0.164125 31.9151 0.00750403 40.7786C0.179133 49.6422 3.28936 58.1976 8.84957 65.1008C14.4098 72.0039 22.1049 76.8637 30.726 78.9167L38.1609 58.5L51.2395 22.5208H66.8589C71.0865 22.5208 73.3774 25.7917 71.9196 29.7917L63.0686 54.1458C62.6643 55.1076 61.9959 55.9351 61.1408 56.5324C60.2857 57.1298 59.2788 57.4725 58.237 57.5208H46.991L38.8273 79.9792L40.0144 80C50.6192 80 60.7897 75.7857 68.2885 68.2843C75.7872 60.7828 80 50.6087 80 40C80 29.3913 75.7872 19.2172 68.2885 11.7157C60.7897 4.21427 50.6192 0 40.0144 0L39.9935 0.020833ZM57.8205 27.7917L48.907 52.25H55.2797L64.1932 27.7917H57.8205Z" fill="#0096D6"/>
</svg>
