<svg width="250" height="46" viewBox="0 0 250 46" fill="none" xmlns="http://www.w3.org/2000/svg">
<path d="M250 20.852V17.1349H244.54V11.3561L244.356 11.4039L239.228 12.7305L239.127 12.7565V17.1351H231.033V14.6958C231.033 13.56 231.333 12.6908 231.925 12.1112C232.513 11.5385 233.354 11.2473 234.427 11.2473C235.198 11.2473 235.996 11.4009 236.799 11.7037L237.001 11.7797V7.86508L236.906 7.83564C236.157 7.60787 235.137 7.49316 233.874 7.49316C232.281 7.49316 230.834 7.78616 229.572 8.36684C228.31 8.94833 227.316 9.77846 226.621 10.8339C225.927 11.8881 225.575 13.1057 225.575 14.4531V17.1349H221.774V20.852H225.575V36.5117H231.033V20.852H239.127V30.8035C239.127 34.9019 241.414 36.9789 245.923 36.9789C246.664 36.9789 247.444 36.9055 248.241 36.7618C249.051 36.6141 249.603 36.4667 249.928 36.3093L250 36.2733V32.5218L249.778 32.6459C249.482 32.8127 249.113 32.9491 248.681 33.0505C248.246 33.1538 247.884 33.2055 247.603 33.2055C246.546 33.2055 245.765 32.9649 245.28 32.4899C244.789 32.0106 244.54 31.1725 244.54 30.0001V20.852H250ZM209.586 33.2061C207.605 33.2061 206.043 32.6508 204.943 31.5569C203.835 30.4575 203.274 28.8901 203.274 26.8986C203.274 24.844 203.835 23.2359 204.943 22.117C206.045 21.0056 207.591 20.4414 209.542 20.4414C211.434 20.4414 212.94 20.9802 214.019 22.0436C215.104 23.1126 215.654 24.7078 215.654 26.7864C215.654 28.8905 215.137 30.5068 214.116 31.588C213.103 32.661 211.579 33.2061 209.586 33.2061V33.2061ZM209.829 16.6681C206.049 16.6681 203.048 17.6043 200.907 19.4508C198.769 21.2975 197.684 23.8531 197.684 27.0473C197.684 30.0811 198.743 32.5214 200.831 34.2992C202.919 36.0776 205.76 36.9785 209.276 36.9785C212.939 36.9785 215.881 36.0292 218.021 34.1571C220.16 32.2871 221.243 29.7556 221.243 26.6361C221.243 23.5548 220.226 21.0963 218.22 19.3304C216.212 17.5636 213.389 16.6681 209.829 16.6681V16.6681ZM188.885 16.6681C186.314 16.6681 184.188 17.224 182.563 18.3201C180.929 19.4228 180.1 20.869 180.1 22.619C180.1 23.5286 180.279 24.3367 180.631 25.0221C180.985 25.7097 181.533 26.3151 182.262 26.8232C182.985 27.3272 184.101 27.8551 185.579 28.3922C186.822 28.8247 187.749 29.1905 188.338 29.4788C188.914 29.7613 189.322 30.0453 189.553 30.322C189.777 30.5927 189.891 30.9632 189.891 31.4203C189.891 32.7222 188.738 33.3556 186.365 33.3556C185.485 33.3556 184.481 33.2002 183.381 32.8939C182.29 32.5923 181.259 32.1505 180.326 31.5841L180.099 31.4467V35.8891L180.183 35.9218C180.955 36.2232 181.928 36.4773 183.076 36.6773C184.221 36.8775 185.262 36.9793 186.166 36.9793C188.956 36.9793 191.202 36.4207 192.841 35.318C194.491 34.2078 195.327 32.7275 195.327 30.9169C195.327 29.6108 194.877 28.4908 193.99 27.5875C193.109 26.6915 191.579 25.8689 189.447 25.1419C187.748 24.5653 186.659 24.0866 186.21 23.7192C185.777 23.3643 185.557 22.8623 185.557 22.2266C185.557 21.6631 185.829 21.2117 186.385 20.8461C186.947 20.4787 187.728 20.2918 188.708 20.2918C189.617 20.2918 190.548 20.4132 191.473 20.6512C192.398 20.8892 193.21 21.208 193.888 21.5979L194.111 21.7267V17.5127L194.025 17.4816C193.4 17.2549 192.575 17.0608 191.573 16.9034C190.576 16.747 189.672 16.6681 188.885 16.6681V16.6681ZM165.872 33.2061C163.892 33.2061 162.33 32.6508 161.229 31.5569C160.122 30.4575 159.561 28.8905 159.561 26.8986C159.561 24.844 160.122 23.2359 161.23 22.117C162.331 21.0056 163.877 20.4414 165.828 20.4414C167.72 20.4414 169.227 20.9802 170.306 22.0436C171.39 23.1126 171.941 24.7078 171.941 26.7864C171.941 28.8905 171.423 30.5068 170.402 31.588C169.389 32.661 167.865 33.2061 165.872 33.2061V33.2061ZM166.116 16.6681C162.335 16.6681 159.333 17.6043 157.194 19.4508C155.055 21.2975 153.97 23.8531 153.97 27.0473C153.97 30.0823 155.03 32.5214 157.118 34.2992C159.206 36.0776 162.047 36.9785 165.563 36.9785C169.226 36.9785 172.168 36.0292 174.308 34.1571C176.446 32.2871 177.53 29.7556 177.53 26.6361C177.53 23.5548 176.513 21.0963 174.506 19.3304C172.498 17.5636 169.675 16.6681 166.116 16.6681V16.6681ZM145.686 20.4905V17.1349H140.295V36.5113H145.686V26.5995C145.686 24.9141 146.138 23.5295 147.03 22.4836C147.91 21.4503 149.084 20.9266 150.516 20.9266C151.002 20.9266 151.547 20.9943 152.137 21.1282C152.722 21.2613 153.145 21.4059 153.395 21.558L153.621 21.6969V17.1017L153.534 17.07C153.032 16.8897 152.322 16.7987 151.423 16.7987C150.068 16.7987 148.856 17.1668 147.817 17.8914C146.906 18.5283 146.247 19.4015 145.743 20.4905H145.686ZM130.64 16.6681C128.167 16.6681 125.961 17.1165 124.085 18.0004C122.204 18.8863 120.75 20.1511 119.761 21.7594C118.776 23.3639 118.276 25.238 118.276 27.328C118.276 29.1588 118.761 30.8388 119.719 32.3196C120.678 33.8028 122.035 34.9631 123.753 35.7679C125.469 36.5716 127.452 36.9791 129.647 36.9791C132.209 36.9791 134.396 36.546 136.15 35.692L136.221 35.6576V31.4819L135.994 31.6217C135.2 32.111 134.312 32.5015 133.357 32.7829C132.404 33.064 131.535 33.2061 130.774 33.2061C128.658 33.2061 126.96 32.6465 125.727 31.5432C124.492 30.4385 123.866 28.8872 123.866 26.9352C123.866 24.9709 124.519 23.3798 125.806 22.2058C127.09 21.0352 128.791 20.4414 130.863 20.4414C132.635 20.4414 134.361 20.9487 135.995 21.9506L136.221 22.0894V17.6896L136.148 17.6548C135.533 17.3639 134.695 17.1236 133.654 16.9414C132.617 16.7597 131.604 16.6681 130.64 16.6681V16.6681ZM114.563 17.1351H109.172V36.5113H114.563V17.1351V17.1351ZM111.922 8.88066C111.035 8.88066 110.261 9.13603 109.625 9.64208C108.987 10.1496 108.663 10.7885 108.663 11.5426C108.663 12.2848 108.983 12.9121 109.615 13.4061C110.244 13.8986 111.02 14.1483 111.923 14.1483C112.825 14.1483 113.604 13.8986 114.24 13.4069C114.88 12.9121 115.204 12.285 115.204 11.5426C115.204 10.8149 114.888 10.1825 114.266 9.66253C113.644 9.1436 112.856 8.88066 111.922 8.88066ZM98.4712 15.7055V36.5113H103.973V9.47381H96.3583L86.6794 29.5564L77.2866 9.47381H69.3618V36.5111H74.5321V15.7034H74.7096L84.6281 36.5113H88.53L98.2937 15.7055H98.4712V15.7055Z" fill="#706D6E"/>
<path d="M25.3612 21.8804H0V0.438721H25.3612V21.8804Z" fill="#F1511B"/>
<path d="M53.3626 21.8804H28.002V0.438721H53.3626V21.8804Z" fill="#80CC28"/>
<path d="M25.3604 45.5628H0V24.1213H25.3604V45.5628Z" fill="#00ADEF"/>
<path d="M53.3626 45.5628H28.002V24.1213H53.3626V45.5628Z" fill="#FBBC09"/>
</svg>
