<svg width="120" height="120" viewBox="0 0 120 120" fill="none" xmlns="http://www.w3.org/2000/svg">
<g clip-path="url(#clip0_603_6830)">
<path fill-rule="evenodd" clip-rule="evenodd" d="M21.2755 66.8369C20.3491 66.8369 19.6239 67.4849 19.6239 68.4306C19.6239 69.3769 20.3529 70.0212 21.2755 70.0212C22.1975 70.0212 22.9271 69.3725 22.9271 68.4306C22.9271 67.4849 22.2012 66.8369 21.2755 66.8369ZM21.2755 69.5655C20.615 69.5655 20.125 69.083 20.125 68.4306C20.125 67.7788 20.6112 67.2926 21.2755 67.2926C21.9316 67.2926 22.4253 67.7862 22.4253 68.4306C22.4253 69.0712 21.9273 69.5655 21.2755 69.5655ZM37.3466 61.2626H29.3064L30.2203 47.2876L24.9989 61.2626H17.5327L29.3792 29.675H37.3235L36.4065 43.8418L41.7268 29.675H49.1937L37.3466 61.2626ZM38.3165 61.2626L50.1624 29.675H57.6286L45.7827 61.2626H38.3165Z" fill="black" fill-opacity="0.9"/>
<path fill-rule="evenodd" clip-rule="evenodd" d="M16.672 50.3747C6.23873 62.6271 -3.60314 78.9298 5.09013 86.4371C13.5138 93.7122 24.043 89.4048 31.2222 86.533C38.4015 83.6611 117.753 49.2018 117.753 49.2018C118.519 48.8189 118.376 48.3402 117.418 48.5793C117.032 48.6758 31.0311 71.9827 31.0311 71.9827C20.1178 75.0463 7.67433 68.3695 16.672 50.3747V50.3747Z" fill="black" fill-opacity="0.9"/>
<path fill-rule="evenodd" clip-rule="evenodd" d="M21.5571 68.5427C21.7887 68.5315 21.9698 68.412 21.9698 68.0913C21.9698 67.678 21.6997 67.574 21.2483 67.574H20.5996V69.2879H21.0323V68.5583H21.1051L21.4992 69.2879H21.9966L21.5571 68.5427V68.5427ZM21.2794 68.265H21.0329V67.8672H21.2408C21.3685 67.8672 21.5148 67.8822 21.5148 68.0484C21.5148 68.2264 21.4301 68.265 21.2794 68.265ZM96.3289 29.5786C95.4026 29.5786 94.6773 30.2273 94.6773 31.1723C94.6773 32.118 95.4069 32.7623 96.3289 32.7623C97.2509 32.7623 97.9805 32.1136 97.9805 31.1723C97.9812 30.2273 97.2559 29.5786 96.3289 29.5786ZM96.3289 32.3079C95.6684 32.3079 95.1784 31.8254 95.1784 31.173C95.1784 30.5212 95.6647 30.0349 96.3289 30.0349C96.9851 30.0349 97.4794 30.5286 97.4794 31.173C97.4794 31.8136 96.9814 32.3079 96.3289 32.3079Z" fill="black" fill-opacity="0.9"/>
<path fill-rule="evenodd" clip-rule="evenodd" d="M96.6111 31.2843C96.8427 31.2731 97.0244 31.1536 97.0244 30.833C97.0244 30.4196 96.7536 30.3157 96.3029 30.3157H95.6542V32.0289H96.0863V31.2999H96.1597L96.5532 32.0289H97.0512L96.6111 31.2843ZM96.3328 31.0067H96.0863V30.6089H96.2948C96.4218 30.6089 96.5687 30.6244 96.5687 30.7907C96.5687 30.9681 96.4834 31.0067 96.3328 31.0067V31.0067ZM91.4097 34.9399L93.4161 29.675H70.6346L62.8123 39.1515L66.4237 29.675H58.8616L47.1104 61.2625H54.5766L59.5937 48.0533L59.9373 61.2625L82.8465 61.2127L85.0273 55.1367H76.3172L79.1791 47.4793H86.3577L88.5665 41.5925H81.3879L83.8488 34.9399H91.4097V34.9399ZM67.3444 59.1565L66.8657 42.6932L78.1544 30.2988L67.3444 59.1565V59.1565Z" fill="black" fill-opacity="0.9"/>
</g>
<defs>
<clipPath id="clip0_603_6830">
<rect width="120" height="120" fill="white"/>
</clipPath>
</defs>
</svg>
