<svg width="248" height="56" viewBox="0 0 248 56" fill="none" xmlns="http://www.w3.org/2000/svg">
<path d="M31.4598 11.02L34.9798 18.06C35.4598 19.04 36.7398 19.98 37.8198 20.16L44.1998 21.22C48.2798 21.9 49.2398 24.86 46.2998 27.78L41.3398 32.74C40.4998 33.58 40.0398 35.2 40.2998 36.36L41.7198 42.5C42.8398 47.36 40.2598 49.24 35.9598 46.7L29.9798 43.16C28.8998 42.52 27.1198 42.52 26.0198 43.16L20.0398 46.7C15.7598 49.24 13.1598 47.34 14.2798 42.5L15.6998 36.36C15.9598 35.2 15.4998 33.58 14.6598 32.74L9.69982 27.78C6.77982 24.86 7.71982 21.9 11.7998 21.22L18.1798 20.16C19.2398 19.98 20.5198 19.04 20.9998 18.06L24.5198 11.02C26.4398 7.20003 29.5598 7.20003 31.4598 11.02Z" fill="#E7D323" stroke="#E7D323" stroke-width="1.5" stroke-linecap="round" stroke-linejoin="round"/>
<path d="M79.4598 11.02L82.9798 18.06C83.4598 19.04 84.7398 19.98 85.8198 20.16L92.1998 21.22C96.2798 21.9 97.2398 24.86 94.2998 27.78L89.3398 32.74C88.4998 33.58 88.0398 35.2 88.2998 36.36L89.7198 42.5C90.8398 47.36 88.2598 49.24 83.9598 46.7L77.9798 43.16C76.8998 42.52 75.1198 42.52 74.0198 43.16L68.0398 46.7C63.7598 49.24 61.1598 47.34 62.2798 42.5L63.6998 36.36C63.9598 35.2 63.4998 33.58 62.6598 32.74L57.6998 27.78C54.7798 24.86 55.7198 21.9 59.7998 21.22L66.1798 20.16C67.2398 19.98 68.5198 19.04 68.9998 18.06L72.5198 11.02C74.4398 7.20003 77.5598 7.20003 79.4598 11.02Z" fill="#E7D323" stroke="#E7D323" stroke-width="1.5" stroke-linecap="round" stroke-linejoin="round"/>
<path d="M127.46 11.02L130.98 18.06C131.46 19.04 132.74 19.98 133.82 20.16L140.2 21.22C144.28 21.9 145.24 24.86 142.3 27.78L137.34 32.74C136.5 33.58 136.04 35.2 136.3 36.36L137.72 42.5C138.84 47.36 136.26 49.24 131.96 46.7L125.98 43.16C124.9 42.52 123.12 42.52 122.02 43.16L116.04 46.7C111.76 49.24 109.16 47.34 110.28 42.5L111.7 36.36C111.96 35.2 111.5 33.58 110.66 32.74L105.7 27.78C102.78 24.86 103.72 21.9 107.8 21.22L114.18 20.16C115.24 19.98 116.52 19.04 117 18.06L120.52 11.02C122.44 7.20003 125.56 7.20003 127.46 11.02Z" fill="#E7D323" stroke="#E7D323" stroke-width="1.5" stroke-linecap="round" stroke-linejoin="round"/>
<path d="M175.46 11.02L178.98 18.06C179.46 19.04 180.74 19.98 181.82 20.16L188.2 21.22C192.28 21.9 193.24 24.86 190.3 27.78L185.34 32.74C184.5 33.58 184.04 35.2 184.3 36.36L185.72 42.5C186.84 47.36 184.26 49.24 179.96 46.7L173.98 43.16C172.9 42.52 171.12 42.52 170.02 43.16L164.04 46.7C159.76 49.24 157.16 47.34 158.28 42.5L159.7 36.36C159.96 35.2 159.5 33.58 158.66 32.74L153.7 27.78C150.78 24.86 151.72 21.9 155.8 21.22L162.18 20.16C163.24 19.98 164.52 19.04 165 18.06L168.52 11.02C170.44 7.20003 173.56 7.20003 175.46 11.02Z" fill="#E7D323" stroke="#E7D323" stroke-width="1.5" stroke-linecap="round" stroke-linejoin="round"/>
<path d="M223.46 11.02L226.98 18.06C227.46 19.04 228.74 19.98 229.82 20.16L236.2 21.22C240.28 21.9 241.24 24.86 238.3 27.78L233.34 32.74C232.5 33.58 232.04 35.2 232.3 36.36L233.72 42.5C234.84 47.36 232.26 49.24 227.96 46.7L221.98 43.16C220.9 42.52 219.12 42.52 218.02 43.16L212.04 46.7C207.76 49.24 205.16 47.34 206.28 42.5L207.7 36.36C207.96 35.2 207.5 33.58 206.66 32.74L201.7 27.78C198.78 24.86 199.72 21.9 203.8 21.22L210.18 20.16C211.24 19.98 212.52 19.04 213 18.06L216.52 11.02C218.44 7.20003 221.56 7.20003 223.46 11.02Z" fill="#E7D323" stroke="#E7D323" stroke-width="1.5" stroke-linecap="round" stroke-linejoin="round"/>
</svg>
