<svg width="48" height="48" viewBox="0 0 48 48" fill="none" xmlns="http://www.w3.org/2000/svg">
<path d="M27.4598 7.02003L30.9798 14.06C31.4598 15.04 32.7398 15.98 33.8198 16.16L40.1998 17.22C44.2798 17.9 45.2398 20.86 42.2998 23.78L37.3398 28.74C36.4998 29.58 36.0398 31.2 36.2998 32.36L37.7198 38.5C38.8398 43.36 36.2598 45.24 31.9598 42.7L25.9798 39.16C24.8998 38.52 23.1198 38.52 22.0198 39.16L16.0398 42.7C11.7598 45.24 9.15982 43.34 10.2798 38.5L11.6998 32.36C11.9598 31.2 11.4998 29.58 10.6598 28.74L5.69982 23.78C2.77982 20.86 3.71982 17.9 7.79982 17.22L14.1798 16.16C15.2398 15.98 16.5198 15.04 16.9998 14.06L20.5198 7.02003C22.4398 3.20003 25.5598 3.20003 27.4598 7.02003Z" fill="#E7D323" stroke="#E7D323" stroke-width="1.5" stroke-linecap="round" stroke-linejoin="round"/>
</svg>
