<svg width="280" height="514" viewBox="0 0 280 514" fill="none" xmlns="http://www.w3.org/2000/svg">
<path d="M221.65 174.764L204.824 114.835L144 120.034L184.71 62.2749L239.959 64.9855L262.36 117.005L221.65 174.764Z" fill="#EBDA48"/>
<path d="M227.221 455.9L215.387 404.836L164.02 406.853L200.502 359.843L246.874 364.263L263.703 408.89L227.221 455.9Z" fill="#0D4D0C"/>
<path d="M52.0039 513.819L44.9551 468.499L0.000256961 466.962L34.8541 428.28L75.0365 435.114L86.8577 475.138L52.0039 513.819Z" fill="#0D4D0C"/>
<path d="M100.845 86.2783L90.0536 48.4752L51.653 51.9247L77.2062 15.3345L112.108 16.8953L126.398 49.6882L100.845 86.2783Z" fill="#0D4D0C"/>
<path d="M106.339 327.02L107.51 287.724L69.8699 279.375L105.309 252.248L138.097 264.312L141.778 299.893L106.339 327.02Z" fill="#0D4D0C"/>
</svg>
