<svg width="250" height="544" viewBox="0 0 250 544" fill="none" xmlns="http://www.w3.org/2000/svg">
<path d="M67.6377 352.979L76.7793 414.549L137.774 417.056L90.111 469.225L35.643 459.575L19.975 405.148L67.6377 352.979Z" fill="#0D4D0C"/>
<path d="M97.5347 73.3809L102.84 125.529L154.052 130L111.937 172.04L66.4918 161.812L55.4196 115.42L97.5347 73.3809Z" fill="#0D4D0C"/>
<path d="M189.983 219L191.265 264.847L235.668 272.036L196.218 306.018L157.217 294.176L150.533 252.982L189.983 219Z" fill="#C36018"/>
<path d="M205.516 456L211.458 494.862L249.987 496.278L220.027 529.357L185.6 523.411L175.556 489.079L205.516 456Z" fill="#0D4D0C"/>
<path d="M217.741 0L211.628 38.8349L247.916 51.86L209.342 74.3051L178.335 58.2067L179.166 22.4452L217.741 0Z" fill="#0D4D0C"/>
</svg>
