<svg width="179" height="64" viewBox="0 0 179 64" fill="none" xmlns="http://www.w3.org/2000/svg">
<g clip-path="url(#clip0_446_8366)">
<path d="M32.001 46.5921L40.705 55.295L64 32.0001L40.705 8.70508L32.001 17.408L46.5921 32.0001L32.001 46.5921Z" fill="url(#paint0_linear_446_8366)"/>
<path d="M46.5921 32L32.001 46.592L40.705 55.2949L64 32" fill="url(#paint1_linear_446_8366)"/>
<path d="M17.409 32.0001L32.0009 17.408L23.297 8.70508L0 32.0001L23.297 55.295L32.0009 46.5921L17.409 32.0001Z" fill="url(#paint2_linear_446_8366)"/>
<path d="M0 32L23.297 55.2949L32.0009 46.592L17.409 32" fill="url(#paint3_linear_446_8366)"/>
<path d="M17.408 32.001L8.70508 40.705L32.0001 64L55.295 40.705L46.5921 32.001L32.0001 46.5921L17.408 32.001Z" fill="url(#paint4_linear_446_8366)"/>
<path d="M32.0001 46.5921L17.408 32.001L8.70508 40.705L32.0001 64" fill="url(#paint5_linear_446_8366)"/>
<path d="M32.0001 17.409L46.5921 32.0009L55.295 23.297L32.0001 0L8.70508 23.297L17.408 32.0009L32.0001 17.409Z" fill="url(#paint6_linear_446_8366)"/>
<path d="M32.0001 0L8.70508 23.297L17.408 32.0009L32.0001 17.409" fill="url(#paint7_linear_446_8366)"/>
</g>
<path d="M70.0227 20.2273H76.0909L82.5 35.8636H82.7727L89.1818 20.2273H95.25V43.5H90.4773V28.3523H90.2841L84.2614 43.3864H81.0114L74.9886 28.2955H74.7955V43.5H70.0227V20.2273ZM104.19 43.8295C103.077 43.8295 102.084 43.6364 101.213 43.25C100.342 42.8561 99.6525 42.2765 99.1449 41.5114C98.6449 40.7386 98.3949 39.7765 98.3949 38.625C98.3949 37.6553 98.5729 36.8409 98.929 36.1818C99.285 35.5227 99.7699 34.9924 100.384 34.5909C100.997 34.1894 101.694 33.8864 102.474 33.6818C103.262 33.4773 104.088 33.3333 104.952 33.25C105.967 33.1439 106.785 33.0455 107.406 32.9545C108.027 32.8561 108.478 32.7121 108.759 32.5227C109.039 32.3333 109.179 32.053 109.179 31.6818V31.6136C109.179 30.8939 108.952 30.3371 108.497 29.9432C108.05 29.5492 107.414 29.3523 106.588 29.3523C105.717 29.3523 105.024 29.5455 104.509 29.9318C103.993 30.3106 103.652 30.7879 103.486 31.3636L99.0085 31C99.2358 29.9394 99.6828 29.0227 100.349 28.25C101.016 27.4697 101.876 26.8712 102.929 26.4545C103.99 26.0303 105.217 25.8182 106.611 25.8182C107.58 25.8182 108.509 25.9318 109.395 26.1591C110.289 26.3864 111.08 26.7386 111.77 27.2159C112.467 27.6932 113.016 28.3068 113.418 29.0568C113.819 29.7992 114.02 30.6894 114.02 31.7273V43.5H109.429V41.0795H109.293C109.012 41.625 108.637 42.1061 108.168 42.5227C107.698 42.9318 107.134 43.2538 106.474 43.4886C105.815 43.7159 105.054 43.8295 104.19 43.8295ZM105.577 40.4886C106.289 40.4886 106.918 40.3485 107.463 40.0682C108.009 39.7803 108.437 39.3939 108.747 38.9091C109.058 38.4242 109.213 37.875 109.213 37.2614V35.4091C109.062 35.5076 108.853 35.5985 108.588 35.6818C108.33 35.7576 108.039 35.8295 107.713 35.8977C107.387 35.9583 107.062 36.0152 106.736 36.0682C106.41 36.1136 106.115 36.1553 105.849 36.1932C105.281 36.2765 104.785 36.4091 104.361 36.5909C103.937 36.7727 103.607 37.0189 103.372 37.3295C103.137 37.6326 103.02 38.0114 103.02 38.4659C103.02 39.125 103.259 39.6288 103.736 39.9773C104.221 40.3182 104.834 40.4886 105.577 40.4886ZM125.639 50.4091C124.071 50.4091 122.726 50.1932 121.605 49.7614C120.491 49.3371 119.605 48.7576 118.946 48.0227C118.287 47.2879 117.859 46.4621 117.662 45.5455L122.139 44.9432C122.276 45.2917 122.491 45.6174 122.787 45.9205C123.082 46.2235 123.473 46.4659 123.957 46.6477C124.45 46.8371 125.048 46.9318 125.753 46.9318C126.806 46.9318 127.673 46.6742 128.355 46.1591C129.045 45.6515 129.389 44.7992 129.389 43.6023V40.4091H129.185C128.973 40.8939 128.654 41.3523 128.23 41.7841C127.806 42.2159 127.26 42.5682 126.594 42.8409C125.927 43.1136 125.132 43.25 124.207 43.25C122.897 43.25 121.704 42.947 120.628 42.3409C119.56 41.7273 118.707 40.7917 118.071 39.5341C117.442 38.2689 117.128 36.6705 117.128 34.7386C117.128 32.7614 117.45 31.1098 118.094 29.7841C118.738 28.4583 119.594 27.4659 120.662 26.8068C121.738 26.1477 122.916 25.8182 124.196 25.8182C125.173 25.8182 125.991 25.9848 126.651 26.3182C127.31 26.6439 127.84 27.053 128.241 27.5455C128.651 28.0303 128.965 28.5076 129.185 28.9773H129.366V26.0455H134.173V43.6705C134.173 45.1553 133.81 46.3977 133.082 47.3977C132.355 48.3977 131.348 49.1477 130.06 49.6477C128.779 50.1553 127.306 50.4091 125.639 50.4091ZM125.741 39.6136C126.522 39.6136 127.181 39.4205 127.719 39.0341C128.264 38.6402 128.681 38.0795 128.969 37.3523C129.264 36.6174 129.412 35.7386 129.412 34.7159C129.412 33.6932 129.268 32.8068 128.98 32.0568C128.692 31.2992 128.276 30.7121 127.73 30.2955C127.185 29.8788 126.522 29.6705 125.741 29.6705C124.946 29.6705 124.276 29.8864 123.73 30.3182C123.185 30.7424 122.772 31.3333 122.491 32.0909C122.211 32.8485 122.071 33.7235 122.071 34.7159C122.071 35.7235 122.211 36.5947 122.491 37.3295C122.779 38.0568 123.192 38.6212 123.73 39.0227C124.276 39.4167 124.946 39.6136 125.741 39.6136ZM142.866 33.4091V43.5H138.026V26.0455H142.639V29.125H142.844C143.23 28.1098 143.878 27.3068 144.787 26.7159C145.696 26.1174 146.798 25.8182 148.094 25.8182C149.306 25.8182 150.363 26.0833 151.264 26.6136C152.166 27.1439 152.866 27.9015 153.366 28.8864C153.866 29.8636 154.116 31.0303 154.116 32.3864V43.5H149.276V33.25C149.283 32.1818 149.01 31.3485 148.457 30.75C147.904 30.1439 147.143 29.8409 146.173 29.8409C145.522 29.8409 144.946 29.9811 144.446 30.2614C143.954 30.5417 143.567 30.9508 143.287 31.4886C143.014 32.0189 142.874 32.6591 142.866 33.4091ZM162.909 43.8295C161.795 43.8295 160.803 43.6364 159.932 43.25C159.061 42.8561 158.371 42.2765 157.864 41.5114C157.364 40.7386 157.114 39.7765 157.114 38.625C157.114 37.6553 157.292 36.8409 157.648 36.1818C158.004 35.5227 158.489 34.9924 159.102 34.5909C159.716 34.1894 160.413 33.8864 161.193 33.6818C161.981 33.4773 162.807 33.3333 163.67 33.25C164.686 33.1439 165.504 33.0455 166.125 32.9545C166.746 32.8561 167.197 32.7121 167.477 32.5227C167.758 32.3333 167.898 32.053 167.898 31.6818V31.6136C167.898 30.8939 167.67 30.3371 167.216 29.9432C166.769 29.5492 166.133 29.3523 165.307 29.3523C164.436 29.3523 163.742 29.5455 163.227 29.9318C162.712 30.3106 162.371 30.7879 162.205 31.3636L157.727 31C157.955 29.9394 158.402 29.0227 159.068 28.25C159.735 27.4697 160.595 26.8712 161.648 26.4545C162.708 26.0303 163.936 25.8182 165.33 25.8182C166.299 25.8182 167.227 25.9318 168.114 26.1591C169.008 26.3864 169.799 26.7386 170.489 27.2159C171.186 27.6932 171.735 28.3068 172.136 29.0568C172.538 29.7992 172.739 30.6894 172.739 31.7273V43.5H168.148V41.0795H168.011C167.731 41.625 167.356 42.1061 166.886 42.5227C166.417 42.9318 165.852 43.2538 165.193 43.4886C164.534 43.7159 163.773 43.8295 162.909 43.8295ZM164.295 40.4886C165.008 40.4886 165.636 40.3485 166.182 40.0682C166.727 39.7803 167.155 39.3939 167.466 38.9091C167.777 38.4242 167.932 37.875 167.932 37.2614V35.4091C167.78 35.5076 167.572 35.5985 167.307 35.6818C167.049 35.7576 166.758 35.8295 166.432 35.8977C166.106 35.9583 165.78 36.0152 165.455 36.0682C165.129 36.1136 164.833 36.1553 164.568 36.1932C164 36.2765 163.504 36.4091 163.08 36.5909C162.655 36.7727 162.326 37.0189 162.091 37.3295C161.856 37.6326 161.739 38.0114 161.739 38.4659C161.739 39.125 161.977 39.6288 162.455 39.9773C162.939 40.3182 163.553 40.4886 164.295 40.4886Z" fill="black"/>
<defs>
<linearGradient id="paint0_linear_446_8366" x1="75.9899" y1="32.0018" x2="34.57" y2="32.0018" gradientUnits="userSpaceOnUse">
<stop stop-color="#EBDA48"/>
<stop offset="0.682172" stop-color="#EBDA48"/>
<stop offset="0.999" stop-color="#064093"/>
<stop offset="1" stop-color="#E7D323"/>
</linearGradient>
<linearGradient id="paint1_linear_446_8366" x1="40.2743" y1="58.9121" x2="54.8713" y2="21.8552" gradientUnits="userSpaceOnUse">
<stop offset="0.178243" stop-color="#E7D323"/>
<stop offset="0.564685" stop-color="#746A12"/>
<stop offset="0.999" stop-color="#EBDA48"/>
<stop offset="1" stop-color="#F3E991"/>
</linearGradient>
<linearGradient id="paint2_linear_446_8366" x1="-0.382909" y1="32.0018" x2="32.218" y2="32.0018" gradientUnits="userSpaceOnUse">
<stop offset="0.012" stop-color="#1A9A17"/>
<stop offset="0.65" stop-color="#082E07"/>
<stop offset="0.930767" stop-color="#93F391"/>
</linearGradient>
<linearGradient id="paint3_linear_446_8366" x1="25.2199" y1="63.9121" x2="10.76" y2="25.3061" gradientUnits="userSpaceOnUse">
<stop offset="0.012" stop-color="#4BEB48"/>
<stop offset="0.658726" stop-color="#93F391"/>
<stop offset="1" stop-color="#1A9A17"/>
</linearGradient>
<linearGradient id="paint4_linear_446_8366" x1="79.3897" y1="69.7133" x2="2.89991" y2="28.2935" gradientUnits="userSpaceOnUse">
<stop offset="0.335416" stop-color="#082E07"/>
<stop offset="0.504602" stop-color="#21C11D"/>
<stop offset="0.650901" stop-color="#147412"/>
</linearGradient>
<linearGradient id="paint5_linear_446_8366" x1="5.0837" y1="40.2729" x2="44.6875" y2="73.8868" gradientUnits="userSpaceOnUse">
<stop stop-color="#6FEF6C"/>
<stop offset="0.215533" stop-color="#147412"/>
<stop offset="0.445269" stop-color="#43B441"/>
<stop offset="1" stop-color="#93F391"/>
<stop offset="1" stop-color="#064093"/>
</linearGradient>
<linearGradient id="paint6_linear_446_8366" x1="32.0846" y1="-0.26569" x2="51.2891" y2="35.8008" gradientUnits="userSpaceOnUse">
<stop offset="0.012" stop-color="#E7D323"/>
<stop offset="0.65" stop-color="#746A12"/>
<stop offset="1" stop-color="#EBDA48"/>
</linearGradient>
<linearGradient id="paint7_linear_446_8366" x1="-4.06247" y1="31.9922" x2="38.6996" y2="10.7607" gradientUnits="userSpaceOnUse">
<stop offset="0.14876" stop-color="#EBDA48"/>
<stop offset="0.592827" stop-color="#746A12"/>
<stop offset="0.847876" stop-color="#C1B01D"/>
</linearGradient>
<clipPath id="clip0_446_8366">
<rect width="64" height="64" fill="white"/>
</clipPath>
</defs>
</svg>
